<?xml version="1.0" standalone="no"?><!DOCTYPE svg PUBLIC "-//W3C//DTD SVG 1.1//EN" "http://www.w3.org/Graphics/SVG/1.1/DTD/svg11.dtd"><svg height="1024" node-id="1" sillyvg="true" template-height="1024" template-width="1024" version="1.1" viewBox="0 0 1024 1024" width="1024" xmlns="http://www.w3.org/2000/svg" xmlns:xlink="http://www.w3.org/1999/xlink"><defs node-id="101"><linearGradient gradientUnits="objectBoundingBox" id="linearGradient-1" node-id="5" spreadMethod="pad" x1="0.34655142" x2="0.5" y1="0.23235148" y2="0.6364441"><stop offset="0" stop-color="#e6e8ed"></stop><stop offset="1" stop-color="#ffffff"></stop></linearGradient><linearGradient gradientUnits="objectBoundingBox" id="linearGradient-2" node-id="8" spreadMethod="pad" x1="0.34655142" x2="0.5" y1="0.23235148" y2="0.6364441"><stop offset="0" stop-color="#e6e8ed"></stop><stop offset="1" stop-color="#ffffff"></stop></linearGradient><linearGradient gradientUnits="objectBoundingBox" id="linearGradient-3" node-id="11" spreadMethod="pad" x1="0.5" x2="0.5" y1="0" y2="1"><stop offset="0" stop-color="#f2f4f8"></stop><stop offset="1" stop-color="#ffffff"></stop></linearGradient><linearGradient gradientUnits="objectBoundingBox" id="linearGradient-4" node-id="14" spreadMethod="pad" x1="0.21524939" x2="0.94385934" y1="0.25918522" y2="0.7342095"><stop offset="0" stop-color="#7bccd9"></stop><stop offset="1" stop-color="#1d90a2"></stop></linearGradient><linearGradient gradientUnits="objectBoundingBox" id="linearGradient-5" node-id="17" spreadMethod="pad" x1="0.6827403" x2="0.5" y1="0" y2="1"><stop offset="0" stop-color="#cccfdd"></stop><stop offset="1" stop-color="#dde1e7"></stop></linearGradient><linearGradient gradientUnits="objectBoundingBox" id="linearGradient-6" node-id="20" spreadMethod="pad" x1="0.6714666" x2="0.5" y1="0" y2="1"><stop offset="0" stop-color="#f5f8fc"></stop><stop offset="1" stop-color="#f1f2f6"></stop></linearGradient><linearGradient gradientUnits="objectBoundingBox" id="linearGradient-7" node-id="23" spreadMethod="pad" x1="0.5" x2="0.24872357" y1="0.104522906" y2="0.75133145"><stop offset="0" stop-color="#c9cdd8"></stop><stop offset="1" stop-color="#dbdfe7"></stop></linearGradient><linearGradient gradientUnits="objectBoundingBox" id="linearGradient-8" node-id="26" spreadMethod="pad" x1="0.6403039" x2="0.4563056" y1="0.14772628" y2="0.8388564"><stop offset="0" stop-color="#dee2ed"></stop><stop offset="1" stop-color="#eaeef3"></stop></linearGradient><linearGradient gradientUnits="objectBoundingBox" id="linearGradient-9" node-id="29" spreadMethod="pad" x1="0.7935573" x2="0.29106426" y1="0.51189685" y2="0.49290276"><stop offset="0" stop-color="#dbdfe7"></stop><stop offset="1" stop-color="#ced2dc"></stop></linearGradient><linearGradient gradientUnits="objectBoundingBox" id="linearGradient-10" node-id="32" spreadMethod="pad" x1="0.5634468" x2="0.31001654" y1="0.2274949" y2="0.8811564"><stop offset="0" stop-color="#cdd0de"></stop><stop offset="1" stop-color="#e2e4e8"></stop></linearGradient><linearGradient gradientUnits="objectBoundingBox" id="linearGradient-11" node-id="35" spreadMethod="pad" x1="0.5" x2="0.5" y1="0" y2="1"><stop offset="0" stop-color="#f5f8fc"></stop><stop offset="1" stop-color="#f1f2f6"></stop></linearGradient><linearGradient gradientUnits="objectBoundingBox" id="linearGradient-12" node-id="38" spreadMethod="pad" x1="0.12244151" x2="0.82428175" y1="0.20328428" y2="0.59747404"><stop offset="0" stop-color="#dfe1e6"></stop><stop offset="0.5720704" stop-color="#e9ebef"></stop><stop offset="1" stop-color="#dfe1e6"></stop></linearGradient><linearGradient gradientUnits="objectBoundingBox" id="linearGradient-13" node-id="42" spreadMethod="pad" x1="0.65674067" x2="0.5" y1="0" y2="1"><stop offset="0" stop-color="#cccfdd"></stop><stop offset="1" stop-color="#dde1e7"></stop></linearGradient><linearGradient gradientUnits="objectBoundingBox" id="linearGradient-14" node-id="45" spreadMethod="pad" x1="0.61637485" x2="0.46375775" y1="0.14772628" y2="0.8388564"><stop offset="0" stop-color="#dee2ed"></stop><stop offset="1" stop-color="#eaeef3"></stop></linearGradient><linearGradient gradientUnits="objectBoundingBox" id="linearGradient-15" node-id="48" spreadMethod="pad" x1="0.65508467" x2="0.5" y1="0" y2="1"><stop offset="0" stop-color="#f5f8fd"></stop><stop offset="1" stop-color="#f0f1f5"></stop></linearGradient><linearGradient gradientUnits="objectBoundingBox" id="linearGradient-16" node-id="51" spreadMethod="pad" x1="0.5" x2="0.28841883" y1="0" y2="0.81775725"><stop offset="0" stop-color="#c9cdd8"></stop><stop offset="1" stop-color="#dbdfe7"></stop></linearGradient><linearGradient gradientUnits="objectBoundingBox" id="linearGradient-17" node-id="54" spreadMethod="pad" x1="0.7935573" x2="0.29106426" y1="0.53498995" y2="0.47912616"><stop offset="0" stop-color="#dbdfe7"></stop><stop offset="1" stop-color="#ced2dc"></stop></linearGradient><linearGradient gradientUnits="objectBoundingBox" id="linearGradient-18" node-id="57" spreadMethod="pad" x1="0.85698766" x2="-0.030270576" y1="0.38976008" y2="0.5340211"><stop offset="0" stop-color="#ced2dc"></stop><stop offset="1" stop-color="#eaeef3"></stop></linearGradient></defs><path d="M 149.47 388.64 C 109.66 347.34 114.75 320.42 164.74 307.88 C 168.41 307.99 210.20 247.35 263.25 307.88 C 273.67 318.83 329.24 352.19 263.25 388.64 C 219.26 412.95 181.33 412.95 149.47 388.64 Z" fill="url(#linearGradient-1)" fill-rule="evenodd" id="路径-212" node-id="61" stroke="none" target-height="165.6" target-width="219.57999" target-x="109.66" target-y="247.35"></path><path d="M 823.71 400.44 C 802.84 378.79 805.51 364.67 831.72 358.09 C 833.64 358.15 855.55 326.35 883.37 358.09 C 888.84 363.84 917.97 381.33 883.37 400.44 C 860.30 413.19 840.42 413.19 823.71 400.44 Z" fill="url(#linearGradient-2)" fill-rule="evenodd" id="路径-212备份" node-id="62" stroke="none" target-height="86.84" target-width="115.129944" target-x="802.84" target-y="326.35"></path><path d="M 509.59 402.53 C 557.91 402.53 597.09 444.39 597.09 496.03 C 597.09 526.61 583.35 553.76 562.11 570.82 C 568.56 573.57 574.41 577.57 579.41 582.53 C 587.47 532.66 631.49 494.53 684.59 494.53 C 743.41 494.53 791.09 541.32 791.09 599.03 C 791.09 656.74 743.41 703.53 684.59 703.53 C 645.20 703.53 610.80 682.54 592.37 651.34 C 583.54 672.10 563.97 686.53 541.24 686.53 C 510.23 686.53 485.09 659.67 485.09 626.53 C 485.09 612.17 489.81 598.99 497.68 588.67 C 489.28 587.45 481.26 584.95 473.79 581.37 C 473.99 584.06 474.09 586.79 474.09 589.53 C 474.09 652.49 422.15 703.53 358.09 703.53 C 302.38 703.53 255.84 664.93 244.65 613.46 C 236.14 628.43 220.04 638.53 201.59 638.53 C 174.25 638.53 152.09 616.37 152.09 589.03 C 152.09 561.69 174.25 539.53 201.59 539.53 C 220.16 539.53 236.34 549.76 244.81 564.88 C 256.27 513.77 302.63 475.53 358.09 475.53 C 381.75 475.53 403.75 482.49 422.10 494.44 C 422.89 443.54 461.76 402.53 509.59 402.53 Z" fill="url(#linearGradient-3)" fill-rule="evenodd" id="形状结合" node-id="63" stroke="none" target-height="301.00003" target-width="639" target-x="152.09" target-y="402.53"></path><g node-id="212"><g node-id="215"><path d="M 238.56 573.53 L 324.76 640.07 L 389.23 654.11 L 380.99 706.83 Z" fill="url(#linearGradient-4)" fill-rule="evenodd" group-id="1,4" id="路径-220" node-id="66" stroke="none" target-height="133.29999" target-width="150.67001" target-x="238.56" target-y="573.53"></path><path d="M 238.16 573.53 L 324.25 640.07 L 386.35 654.11 Z" fill="#67b6c3" fill-rule="evenodd" group-id="1,4" id="路径-221" node-id="67" stroke="none" target-height="80.579956" target-width="148.19" target-x="238.16" target-y="573.53"></path><path d="M 238.40 573.53 L 413.31 660.06 L 466.82 664.31 Z" fill="#67b6c3" fill-rule="evenodd" group-id="1,4" id="路径-222" node-id="68" stroke="none" target-height="90.77997" target-width="228.42001" target-x="238.4" target-y="573.53"></path><path d="M 238.56 573.53 L 388.85 655.53 L 380.99 706.83 L 412.47 659.28 Z" fill="#076c7c" fill-rule="evenodd" group-id="1,4" id="路径-223" node-id="69" stroke="none" target-height="133.29999" target-width="173.91" target-x="238.56" target-y="573.53"></path></g><path d="M 593.37 438.96 L 612.16 438.53 L 629.91 438.71 L 646.69 439.47 L 662.53 440.77 L 677.48 442.59 L 691.60 444.90 L 704.91 447.68 L 717.46 450.90 L 729.30 454.54 L 740.46 458.59 L 750.97 463.04 L 760.87 467.86 L 770.19 473.07 L 778.96 478.64 L 787.21 484.59 L 794.95 490.91 L 802.22 497.61 L 809.02 504.69 L 815.37 512.18 L 821.29 520.08 L 826.77 528.40 L 831.83 537.19 L 836.47 546.44 L 840.67 556.20 L 844.44 566.48 L 847.77 577.33 L 850.64 588.76 L 853.03 600.81 L 854.93 613.53 L 854.84 619.71 L 854.29 625.65 L 853.30 631.36 L 851.87 636.88 L 850.01 642.22 L 847.10 648.71 L 843.64 654.88 L 839.62 660.77 L 835.01 666.39 L 829.98 671.61 L 824.52 676.50 L 818.61 681.08 L 812.22 685.36 L 805.60 689.19 L 798.69 692.64 L 791.46 695.74 L 783.90 698.45 L 776.23 700.73 L 768.42 702.58 L 760.46 704.01 L 752.33 705.01 L 744.17 705.56 L 736.03 705.63 L 727.89 705.24 L 719.76 704.37 L 711.70 703.00 L 703.80 701.13 L 696.07 698.74 L 688.47 695.84 L 681.11 692.41 L 674.05 688.44 L 667.26 683.89 L 660.73 678.77 L 657.30 674.82 L 654.78 671.41 L 653.02 668.45 L 651.89 665.89 L 651.11 663.04 L 650.88 660.60 L 651.13 658.50 L 651.80 656.64 L 652.88 654.94 L 654.32 653.44 L 656.15 652.11 L 658.44 650.96 L 661.65 649.89 L 665.40 649.14 L 669.77 648.77 L 674.15 648.79 L 678.81 649.19 L 683.78 649.98 L 688.68 651.13 L 693.56 652.64 L 698.44 654.53 L 703.16 656.79 L 707.59 659.39 L 711.74 662.34 L 715.55 665.68 L 718.84 669.34 L 721.64 673.33 L 722.97 678.32 L 723.63 683.08 L 723.66 687.67 L 723.07 692.13 L 721.87 696.49 L 720.13 700.64 L 717.85 704.69 L 714.98 708.65 L 711.48 712.54 L 707.28 716.38 L 702.96 719.70 L 698.09 722.90 L 692.62 725.97 L 686.50 728.92 L 679.67 731.73 L 671.31 734.60 L 662.10 737.16 L 651.98 739.39 L 640.88 741.24 L 630.00 742.54 L 618.38 743.39 L 605.97 743.77 L 592.71 743.65 L 579.75 743.03 L 566.17 741.84 L 551.92 740.06 L 536.98 737.67 L 522.39 734.79 L 507.30 731.24 L 491.68 726.99 L 475.50 722.00 L 462.92 717.70 L 450.10 712.90 L 437.03 707.59 L 423.69 701.76 L 410.09 695.38" fill="none" group-id="1" id="路径-219" node-id="70" stroke="#1d90a2" stroke-dasharray="3 3" stroke-linecap="butt" stroke-width="2" target-height="305.24002" target-width="444.84" target-x="410.09" target-y="438.53"></path></g><g node-id="213"><g node-id="216"><path d="M 408.91 339.53 L 464.22 362.68 L 465.10 363.25 L 465.71 364.05 L 466.03 365.01 L 465.99 366.06 L 427.40 551.60 L 427.47 551.63 L 427.34 552.23 L 464.66 565.37 L 465.31 565.75 L 465.75 566.30 L 465.97 566.98 L 465.94 567.72 L 465.89 567.87 L 455.08 601.08 L 454.69 601.77 L 454.10 602.24 L 453.38 602.45 L 452.59 602.37 L 419.01 591.96 L 420.81 583.30 L 418.99 591.95 L 419.01 591.96 L 408.91 640.53 L 350.31 631.80 L 361.80 576.30 L 361.79 576.29 L 362.19 574.34 L 255.29 541.20 L 252.73 540.20 L 250.38 538.86 L 248.21 537.18 L 247.84 536.83 L 245.54 534.21 L 243.83 531.39 L 242.67 528.35 L 242.03 525.14 L 241.95 521.95 L 242.41 518.71 L 243.42 515.61 L 244.98 512.71 L 247.14 509.97 L 408.91 339.53 Z M 385.39 451.64 L 384.31 450.79 L 383.16 450.29 L 381.89 450.10 L 380.61 450.24 L 379.43 450.70 L 378.32 451.50 L 314.72 512.59 L 370.90 532.37 L 386.68 456.12 L 386.78 454.96 L 386.62 453.84 L 386.21 452.78 L 385.56 451.82 Z" fill="url(#linearGradient-5)" fill-rule="evenodd" group-id="2,5" id="形状结合" node-id="73" stroke="none" target-height="301.00003" target-width="224.08" target-x="241.95" target-y="339.53"></path><path d="M 385.91 327.53 L 441.22 350.68 L 442.10 351.25 L 442.71 352.05 L 443.03 353.01 L 442.99 354.06 L 404.40 539.60 L 404.47 539.63 L 404.34 540.23 L 441.66 553.37 L 442.31 553.75 L 442.75 554.30 L 442.97 554.98 L 442.94 555.72 L 442.89 555.87 L 432.07 589.11 L 431.69 589.80 L 431.11 590.26 L 430.39 590.48 L 429.61 590.42 L 395.88 580.60 L 397.83 571.23 L 395.86 580.60 L 395.88 580.60 L 385.91 628.53 L 327.31 619.80 L 338.80 564.30 L 338.79 564.29 L 338.85 564.01 L 239.78 535.20 L 237.33 534.30 L 235.05 533.09 L 232.94 531.56 L 232.56 531.24 L 230.17 528.71 L 228.35 525.97 L 227.06 522.97 L 226.30 519.79 L 226.09 516.60 L 226.43 513.35 L 227.32 510.21 L 228.76 507.25 L 230.80 504.43 L 385.91 327.53 Z M 362.39 439.64 L 361.31 438.79 L 360.16 438.29 L 358.89 438.10 L 357.61 438.24 L 356.43 438.70 L 355.32 439.50 L 291.72 500.59 L 347.90 520.37 L 363.68 444.12 L 363.78 442.96 L 363.62 441.84 L 363.21 440.78 L 362.56 439.82 Z" fill="url(#linearGradient-6)" fill-rule="evenodd" group-id="2,5" id="形状结合" node-id="74" stroke="none" target-height="301.00003" target-width="216.94" target-x="226.09" target-y="327.53"></path><path d="M 395.78 580.98 L 385.91 628.53 L 408.83 640.53 L 418.78 592.98 L 452.86 602.42 L 431.47 590.96 Z" fill="url(#linearGradient-7)" fill-rule="evenodd" group-id="2,5" id="路径-215" node-id="75" stroke="none" target-height="59.55005" target-width="66.94998" target-x="385.91" target-y="580.98"></path><path d="M 443.46 554.03 L 465.00 565.24 L 465.56 565.67 L 465.93 566.25 L 466.07 566.92 L 465.98 567.62 L 455.17 601.01 L 454.78 601.71 L 454.18 602.18 L 453.45 602.39 L 452.66 602.30 L 452.34 602.16 L 430.40 590.56 L 430.40 590.56 L 440.62 555.24 L 440.99 554.54 L 441.57 554.05 L 442.29 553.81 L 443.09 553.88 L 443.46 554.03 Z" fill="url(#linearGradient-8)" fill-rule="evenodd" group-id="2,5" id="路径-216" node-id="76" stroke="none" target-height="48.580017" target-width="35.670013" target-x="430.4" target-y="553.81"></path><path d="M 327.31 619.80 L 350.31 631.80 L 408.91 640.53 L 385.91 628.53 Z" fill="url(#linearGradient-9)" fill-rule="evenodd" group-id="2,5" id="路径-217" node-id="77" stroke="none" target-height="20.730042" target-width="81.600006" target-x="327.31" target-y="619.8"></path></g><g node-id="217"><g node-id="219"><path d="M 490.42 523.82 L 492.81 522.77 L 541.03 507.25 L 543.32 506.74 L 545.58 506.64 L 547.81 506.93 L 549.94 507.60 L 551.92 508.61 L 553.72 509.97 L 555.26 511.63 L 556.53 513.60 L 606.85 609.77 L 607.84 612.23 L 608.29 614.73 L 608.25 617.25 L 607.74 619.68 L 606.77 621.98 L 605.37 624.07 L 603.57 625.86 L 601.36 627.32 L 599.74 628.03 L 555.58 643.95 L 553.30 644.54 L 551.04 644.72 L 548.79 644.50 L 546.64 643.90 L 544.62 642.95 L 542.78 641.65 L 541.18 640.03 L 539.84 638.10 L 485.47 541.52 L 484.41 539.09 L 483.87 536.61 L 483.84 534.10 L 484.28 531.64 L 485.17 529.32 L 486.51 527.19 L 488.25 525.34 L 490.42 523.82 Z" fill="none" group-id="2,6,8" id="矩形" node-id="79" stroke="url(#linearGradient-10)" stroke-linecap="butt" stroke-width="26" target-height="138.07996" target-width="124.44998" target-x="483.84" target-y="506.64"></path></g><g node-id="220"><path d="M 498.38 504.24 L 500.56 503.31 L 546.64 488.48 L 548.93 487.96 L 551.19 487.86 L 553.42 488.16 L 555.55 488.82 L 557.54 489.84 L 559.33 491.20 L 560.88 492.85 L 562.14 494.83 L 610.34 586.95 L 611.33 589.41 L 611.79 591.90 L 611.75 594.42 L 611.23 596.86 L 610.27 599.15 L 608.86 601.24 L 607.07 603.03 L 604.85 604.49 L 603.15 605.23 L 558.89 620.84 L 556.59 621.42 L 554.30 621.58 L 552.04 621.33 L 549.88 620.70 L 547.85 619.71 L 546.01 618.37 L 544.43 616.72 L 543.12 614.74 L 493.09 521.85 L 492.08 519.40 L 491.59 516.91 L 491.60 514.39 L 492.09 511.95 L 493.03 509.64 L 494.40 507.54 L 496.18 505.73 L 498.38 504.24 Z" fill="none" group-id="2,6,9" id="矩形" node-id="80" stroke="url(#linearGradient-11)" stroke-linecap="butt" stroke-width="26" target-height="133.72003" target-width="120.19998" target-x="491.59" target-y="487.86"></path></g><path d="M 537.66 628.43 L 530.05 646.83 L 532.30 649.60 L 535.07 652.09 L 538.43 654.31 L 542.47 656.26 L 546.41 657.22 L 549.27 657.63 L 551.31 657.64 L 560.51 633.83 L 554.96 634.21 L 550.81 634.13 L 547.80 633.69 L 544.93 632.77 L 541.58 631.08 L 537.66 628.43 Z" fill="url(#linearGradient-12)" fill-rule="evenodd" group-id="2,6" id="路径" node-id="81" stroke="none" target-height="29.210022" target-width="30.460022" target-x="530.05" target-y="628.43"></path></g><g node-id="218"><g node-id="221"><path d="M 659.23 492.01 L 693.59 484.58 L 694.64 484.54 L 695.60 484.84 L 696.40 485.45 L 696.98 486.32 L 741.65 590.08 L 708.50 597.89 L 709.36 600.08 L 741.91 590.66 L 741.65 590.08 L 763.87 584.85 L 764.04 584.81 L 764.22 584.79 L 765.01 584.91 L 765.66 585.30 L 766.12 585.91 L 766.32 586.68 L 767.39 606.62 L 767.32 607.28 L 767.05 607.85 L 766.62 608.31 L 766.04 608.62 L 751.72 613.46 L 749.57 608.47 L 751.71 613.47 L 751.72 613.46 L 763.62 641.10 L 731.69 657.02 L 719.20 625.19 L 718.10 625.56 L 717.82 624.92 L 669.16 641.37 L 666.61 642.04 L 664.02 642.35 L 661.38 642.30 L 660.88 642.25 L 657.48 641.52 L 654.42 640.30 L 651.66 638.56 L 649.23 636.38 L 647.24 633.87 L 645.68 631.00 L 644.62 627.92 L 644.13 624.66 L 644.21 621.18 L 659.23 492.01 Z M 688.55 558.80 L 686.12 558.70 L 683.87 559.21 L 681.83 560.28 L 680.12 561.83 L 678.86 563.77 L 678.12 566.08 L 670.88 606.75 L 708.50 597.89 L 695.35 564.37 L 694.28 562.41 L 692.80 560.80 L 690.97 559.59 L 688.86 558.86 Z" fill="url(#linearGradient-13)" fill-rule="evenodd" group-id="2,7,10" id="形状结合" node-id="84" stroke="none" target-height="172.48001" target-width="123.26001" target-x="644.13" target-y="484.54"></path><path d="M 644.09 620.42 L 646.19 604.44 L 646.45 603.69 L 646.96 603.12 L 647.64 602.78 L 648.44 602.72 L 649.19 602.98 L 649.78 603.51 L 663.94 622.50 L 664.25 623.10 L 664.33 623.78 L 663.55 642.66 L 663.55 642.66 L 662.35 642.59 L 658.80 642.03 L 655.57 640.94 L 652.62 639.30 L 649.99 637.18 L 647.81 634.70 L 646.03 631.83 L 644.77 628.70 L 644.08 625.36 L 643.97 621.76 L 644.09 620.42 Z" fill="url(#linearGradient-14)" fill-rule="evenodd" group-id="2,7,10" id="路径-216" node-id="85" stroke="none" target-height="39.940002" target-width="20.360046" target-x="643.97" target-y="602.72"></path><path d="M 660.47 472.25 L 694.88 464.78 L 695.93 464.74 L 696.89 465.04 L 697.69 465.65 L 698.27 466.52 L 743.16 570.89 L 743.20 570.87 L 743.35 571.22 L 765.60 565.02 L 766.35 564.96 L 767.04 565.16 L 767.61 565.59 L 768.00 566.21 L 768.05 566.36 L 773.78 585.10 L 773.86 585.88 L 773.65 586.59 L 773.19 587.18 L 772.51 587.58 L 753.17 594.14 L 750.91 588.90 L 753.16 594.15 L 753.17 594.14 L 764.86 621.33 L 732.87 637.28 L 719.30 605.82 L 719.23 605.66 L 671.43 621.89 L 668.92 622.55 L 666.38 622.87 L 663.79 622.84 L 663.27 622.79 L 659.86 622.09 L 656.79 620.89 L 654.02 619.18 L 651.57 617.01 L 649.57 614.52 L 647.98 611.67 L 646.90 608.59 L 646.38 605.34 L 646.43 601.85 L 660.47 472.25 Z M 691.03 550.14 L 688.60 550.00 L 686.34 550.48 L 684.28 551.51 L 682.55 553.02 L 681.25 554.94 L 680.47 557.24 L 673.94 590.56 L 708.56 580.91 L 697.57 555.41 L 696.50 553.57 L 695.07 552.07 L 693.33 550.93 L 691.33 550.21 Z" fill="url(#linearGradient-15)" fill-rule="evenodd" group-id="2,7,10" id="形状结合" node-id="86" stroke="none" target-height="172.54004" target-width="127.47998" target-x="646.38" target-y="464.74"></path><path d="M 752.95 593.88 L 764.86 621.33 L 773.74 587.10 Z" fill="url(#linearGradient-16)" fill-rule="evenodd" group-id="2,7,10" id="路径-215" node-id="87" stroke="none" target-height="34.23004" target-width="20.789978" target-x="752.95" target-y="587.1"></path><path d="M 731.69 657.02 L 732.87 637.28 L 764.86 621.33 L 763.62 641.10 Z" fill="url(#linearGradient-17)" fill-rule="evenodd" group-id="2,7,10" id="路径-217" node-id="88" stroke="none" target-height="35.690002" target-width="33.169983" target-x="731.69" target-y="621.33"></path></g><path d="M 664.36 623.07 L 663.55 642.66 L 665.26 642.53 L 668.31 641.83 L 673.30 640.21 L 719.42 625.16 L 731.69 657.02 L 732.87 637.28 L 719.42 605.90 L 664.36 623.07 Z" fill="url(#linearGradient-18)" fill-rule="evenodd" group-id="2,7" id="路径-218" node-id="89" stroke="none" target-height="51.119995" target-width="69.32001" target-x="663.55" target-y="605.9"></path></g></g><g node-id="214"><path d="M 520.24 453.93 L 514.53 459.42 L 510.90 463.48 L 508.81 466.42 L 507.81 468.50 L 507.54 469.98 L 513.89 474.35 L 511.94 481.98 L 510.96 487.74 L 510.72 491.98 L 511.01 495.05 L 511.68 497.21 L 512.65 498.69 L 513.89 499.67 L 519.17 499.87 L 526.61 500.02 L 534.28 499.88 L 537.77 499.59 L 540.29 499.18 L 541.79 498.69 L 542.49 498.19 L 542.71 497.68 L 542.48 495.36 L 541.78 493.24 L 540.66 491.17 L 538.85 488.56 L 538.21 487.22 L 537.71 484.68 L 537.50 480.34 L 537.80 473.46 L 538.85 463.18 L 546.20 463.18 L 542.71 453.93 L 533.57 451.67 L 533.85 456.76 L 533.70 459.04 L 533.41 459.83 L 532.20 460.33 L 531.37 460.66 L 530.17 460.86 L 528.83 460.72 L 526.87 460.00 L 524.90 458.54 L 520.24 453.93 Z" fill="#5b5b5b" fill-rule="evenodd" group-id="3" id="路径-224" node-id="91" stroke="none" target-height="48.349976" target-width="38.660004" target-x="507.54" target-y="451.67"></path><path d="M 525.63 443.11 L 525.66 447.20 L 526.00 449.66 L 526.50 451.00 L 527.06 451.63 L 527.71 451.82 L 527.29 452.62 L 525.68 453.80 L 521.81 455.56 L 524.58 458.31 L 526.75 459.93 L 528.44 460.72 L 529.80 460.93 L 530.88 460.89 L 532.01 460.61 L 533.05 460.07 L 533.92 459.23 L 534.50 458.13 L 534.74 456.58 L 535.18 454.85 L 535.92 453.16 L 537.61 449.89 L 538.25 448.25 L 538.51 446.61 L 538.28 444.96 L 537.33 443.11 L 536.10 441.81 L 534.69 441.02 L 533.04 440.67 L 531.07 440.82 L 528.64 441.57 L 525.63 443.11 Z" fill="#fabdaf" fill-rule="evenodd" group-id="3" id="路径-225" node-id="92" stroke="none" target-height="20.25998" target-width="16.700012" target-x="521.81" target-y="440.67"></path><path d="M 508.56 470.75 L 498.29 501.93 L 494.11 501.84 L 491.46 502.18 L 489.87 502.78 L 489.00 503.54 L 488.63 504.48 L 488.57 506.04 L 488.75 506.82 L 489.10 507.28 L 490.14 507.65 L 492.28 507.87 L 496.12 507.77 L 495.36 509.80 L 495.20 510.62 L 495.38 510.94 L 496.12 510.62 L 498.54 507.62 L 501.52 504.48 L 502.72 502.76 L 504.75 498.37 L 508.02 489.47 L 513.02 473.72 L 508.56 470.75 Z" fill="#fabdaf" fill-rule="evenodd" group-id="3" id="路径-226" node-id="93" stroke="none" target-height="40.190002" target-width="24.450012" target-x="488.57" target-y="470.75"></path><path d="M 543.00 454.51 L 554.28 451.30 L 561.63 448.71 L 566.09 446.66 L 568.52 445.05 L 569.63 443.80 L 569.94 442.77 L 570.16 441.30 L 570.62 440.30 L 571.30 439.66 L 572.61 439.08 L 573.93 438.97 L 575.13 439.22 L 575.63 439.56 L 576.04 440.31 L 576.27 441.64 L 576.11 443.04 L 575.40 444.39 L 574.64 445.06 L 573.47 445.53 L 571.72 445.76 L 570.15 447.96 L 568.65 449.90 L 566.30 452.50 L 563.51 455.06 L 559.79 457.78 L 557.06 459.18 L 552.64 460.74 L 545.91 462.44 L 543.00 454.51 Z" fill="#fabdaf" fill-rule="evenodd" group-id="3" id="路径-227" node-id="94" stroke="none" target-height="23.470001" target-width="33.27002" target-x="543" target-y="438.97"></path><path d="M 525.75 441.05 L 527.54 438.85 L 529.21 437.57 L 530.82 436.98 L 532.45 436.97 L 534.19 437.57 L 536.13 438.92 L 537.34 439.26 L 546.40 441.05 L 546.40 442.49 L 537.24 442.49 L 535.79 443.43 L 534.00 444.10 L 531.80 444.46 L 529.09 444.45 L 525.75 444.00 L 524.93 442.76 L 524.77 441.98 L 525.02 441.45 L 525.75 441.05 Z" fill="#5b5b5b" fill-rule="evenodd" group-id="3" id="路径-228" node-id="95" stroke="none" target-height="7.48999" target-width="21.630005" target-x="524.77" target-y="436.97"></path><path d="M 530.45 535.65 L 536.46 539.46 L 539.54 541.11 L 540.88 541.57 L 541.34 541.51 L 541.93 540.83 L 542.30 539.88 L 542.30 539.22 L 541.98 538.43 L 541.19 537.46 L 540.20 536.67 L 538.50 535.72 L 535.81 534.59 L 532.06 533.48 L 530.39 533.36 L 529.79 533.67 L 529.73 534.30 L 530.45 535.65 Z" fill="#373c60" fill-rule="evenodd" group-id="3" id="路径-232" node-id="96" stroke="none" target-height="8.210022" target-width="12.570007" target-x="529.73" target-y="533.36"></path><path d="M 512.70 498.50 L 515.71 503.10 L 518.33 506.37 L 520.60 508.58 L 522.59 509.97 L 524.35 510.71 L 525.94 510.94 L 527.87 511.01 L 529.40 511.32 L 530.63 511.82 L 531.61 512.63 L 532.35 513.92 L 532.83 515.88 L 532.93 517.95 L 532.70 520.96 L 532.01 525.20 L 528.69 531.81 L 525.94 536.79 L 532.01 536.79 L 538.10 527.12 L 542.01 520.08 L 544.29 515.13 L 545.38 511.77 L 545.67 509.57 L 545.46 508.17 L 544.52 506.48 L 542.81 504.70 L 540.05 502.78 L 535.93 500.71 L 530.04 498.50 L 512.70 498.50 Z" fill="#6d747f" fill-rule="evenodd" group-id="3" id="路径-229" node-id="97" stroke="none" target-height="38.289978" target-width="32.96997" target-x="512.7" target-y="498.5"></path><path d="M 530.04 498.50 L 542.49 496.39 L 547.74 499.07 L 551.36 501.48 L 553.70 503.64 L 555.09 505.59 L 555.74 507.39 L 555.80 509.12 L 555.27 510.88 L 553.38 514.09 L 549.57 519.08 L 542.99 526.50 L 532.65 537.08 L 532.01 536.79 L 539.17 523.99 L 543.15 516.05 L 545.00 511.51 L 545.55 509.20 L 545.46 508.17 L 544.57 506.96 L 542.31 505.13 L 537.82 502.41 L 530.04 498.50 Z" fill="#747474" fill-rule="evenodd" group-id="3" id="路径-230" node-id="98" stroke="none" target-height="40.690002" target-width="25.76001" target-x="530.04" target-y="496.39"></path><path d="M 525.94 536.79 L 525.70 539.48 L 529.83 542.04 L 533.08 543.54 L 535.62 544.23 L 536.64 544.21 L 538.21 543.77 L 538.75 543.30 L 538.90 542.60 L 538.57 541.78 L 537.31 540.38 L 535.45 538.94 L 532.01 536.79 L 530.11 536.55 L 525.94 536.79 Z" fill="#373c60" fill-rule="evenodd" group-id="3" id="路径-231" node-id="99" stroke="none" target-height="7.6799927" target-width="13.200012" target-x="525.7" target-y="536.55"></path></g></svg>